# xmcd
#
# Track frame offsets:
#	150
#	16142
#	29471
#	41188
#	55742
#	85831
#	101393
#	114089
#	128648
#	139344
#	154928
#	166329
#	180855
#	196429
#	208843
#	220292
#
# Disc length: 3110 seconds
#
# Revision: 1
# Processed by: cddbd v1.5.1PL0 Copyright (c) Steve Scherf et al.
# Submitted via: audiograbber 1.83.01
#
DISCID=d50c2410
DTITLE=Benny Goodman - Goody Goody - Disc 2
DYEAR=1929
DGENRE=Big Band
TTITLE0=I Cant Give You Anything But Love, Baby
TTITLE1=Sihouetted In The Moonlight
TTITLE2=Loch Lomond
TTITLE3=Thanks For The Memory
TTITLE4=Bei Mir Bist Du Schon ( Parts I and Ii )
TTITLE5=I Let A Song Go Out Of My Heart
TTITLE6=This Can't Be Love
TTITLE7=And The Angels Sing
TTITLE8=Get Rhythm In Your Feet ( And Music In Your Soul )
TTITLE9=It's Been So Long
TTITLE10=Goody Goody
TTITLE11=All My Life
TTITLE12=Too Good To Be True
TTITLE13=These Foolish Things Remind Me Of You
TTITLE14=There's A Small Hotel
TTITLE15=You Turned The Tables On Me
EXTD=YEAR: 1929-47
EXTT0=
EXTT1=
EXTT2=
EXTT3=
EXTT4=
EXTT5=
EXTT6=
EXTT7=
EXTT8=
EXTT9=
EXTT10=
EXTT11=
EXTT12=
EXTT13=
EXTT14=
EXTT15=
PLAYORDER=
